<mxfile host="Electron" agent="Mozilla/5.0 (Windows NT 10.0; Win64; x64) AppleWebKit/537.36 (KHTML, like Gecko) draw.io/25.0.2 Chrome/128.0.6613.186 Electron/32.2.5 Safari/537.36" version="25.0.2">
  <diagram name="페이지-1" id="FsdnH6luMevyMg5RlIv3">
    <mxGraphModel dx="884" dy="617" grid="1" gridSize="10" guides="1" tooltips="1" connect="1" arrows="1" fold="1" page="1" pageScale="1" pageWidth="827" pageHeight="1169" math="0" shadow="0">
      <root>
        <mxCell id="0" />
        <mxCell id="1" parent="0" />
        <mxCell id="W6jWDk25WJkeiZ5SCn0u-1" value="내부 시스템" style="rounded=1;whiteSpace=wrap;html=1;fillColor=#dae8fc;strokeColor=#6c8ebf;fontStyle=1" parent="1" vertex="1">
          <mxGeometry x="82" y="120" width="150" height="50" as="geometry" />
        </mxCell>
        <mxCell id="W6jWDk25WJkeiZ5SCn0u-2" value="대외 연계 시스템" style="rounded=1;whiteSpace=wrap;html=1;fillColor=#d5e8d4;strokeColor=#82b366;fontStyle=1" parent="1" vertex="1">
          <mxGeometry x="345" y="120" width="150" height="50" as="geometry" />
        </mxCell>
        <mxCell id="W6jWDk25WJkeiZ5SCn0u-3" value="대외 기관" style="rounded=1;whiteSpace=wrap;html=1;fillColor=#e1d5e7;strokeColor=#9673a6;fontStyle=1" parent="1" vertex="1">
          <mxGeometry x="613" y="120" width="150" height="50" as="geometry" />
        </mxCell>
        <mxCell id="W6jWDk25WJkeiZ5SCn0u-9" value="카드사1" style="rounded=0;whiteSpace=wrap;html=1;" parent="1" vertex="1">
          <mxGeometry x="630" y="512" width="130" height="40" as="geometry" />
        </mxCell>
        <mxCell id="W6jWDk25WJkeiZ5SCn0u-11" value="카드사2" style="rounded=0;whiteSpace=wrap;html=1;" parent="1" vertex="1">
          <mxGeometry x="630" y="552" width="130" height="40" as="geometry" />
        </mxCell>
        <mxCell id="W6jWDk25WJkeiZ5SCn0u-12" value="은행1" style="rounded=0;whiteSpace=wrap;html=1;" parent="1" vertex="1">
          <mxGeometry x="630" y="413" width="130" height="40" as="geometry" />
        </mxCell>
        <mxCell id="W6jWDk25WJkeiZ5SCn0u-14" value="은행2" style="rounded=0;whiteSpace=wrap;html=1;" parent="1" vertex="1">
          <mxGeometry x="630" y="453" width="130" height="40" as="geometry" />
        </mxCell>
        <mxCell id="W6jWDk25WJkeiZ5SCn0u-15" value="회원 시스템" style="swimlane;whiteSpace=wrap;html=1;fillColor=#dae8fc;strokeColor=#6c8ebf;" parent="1" vertex="1">
          <mxGeometry x="60" y="190" width="200" height="160" as="geometry" />
        </mxCell>
        <mxCell id="W6jWDk25WJkeiZ5SCn0u-25" value="ID/PW 찾기" style="whiteSpace=wrap;html=1;" parent="W6jWDk25WJkeiZ5SCn0u-15" vertex="1">
          <mxGeometry x="10" y="63" width="180" height="24" as="geometry" />
        </mxCell>
        <mxCell id="W6jWDk25WJkeiZ5SCn0u-27" value="회원가입" style="whiteSpace=wrap;html=1;" parent="W6jWDk25WJkeiZ5SCn0u-15" vertex="1">
          <mxGeometry x="10" y="31" width="180" height="24" as="geometry" />
        </mxCell>
        <mxCell id="W6jWDk25WJkeiZ5SCn0u-26" value="휴면 계정 관리(전환 및 해제)" style="whiteSpace=wrap;html=1;" parent="W6jWDk25WJkeiZ5SCn0u-15" vertex="1">
          <mxGeometry x="10" y="95" width="180" height="24" as="geometry" />
        </mxCell>
        <mxCell id="W6jWDk25WJkeiZ5SCn0u-29" value="회원탈퇴" style="whiteSpace=wrap;html=1;" parent="W6jWDk25WJkeiZ5SCn0u-15" vertex="1">
          <mxGeometry x="10" y="127" width="180" height="24" as="geometry" />
        </mxCell>
        <mxCell id="W6jWDk25WJkeiZ5SCn0u-30" value="주문 시스템" style="swimlane;whiteSpace=wrap;html=1;fillColor=#dae8fc;strokeColor=#6c8ebf;" parent="1" vertex="1">
          <mxGeometry x="60" y="360" width="200" height="160" as="geometry" />
        </mxCell>
        <mxCell id="W6jWDk25WJkeiZ5SCn0u-42" value="상품 주문" style="whiteSpace=wrap;html=1;" parent="W6jWDk25WJkeiZ5SCn0u-30" vertex="1">
          <mxGeometry x="10" y="32" width="180" height="24" as="geometry" />
        </mxCell>
        <mxCell id="W6jWDk25WJkeiZ5SCn0u-41" value="결제 처리" style="whiteSpace=wrap;html=1;" parent="W6jWDk25WJkeiZ5SCn0u-30" vertex="1">
          <mxGeometry x="10" y="64" width="180" height="24" as="geometry" />
        </mxCell>
        <mxCell id="W6jWDk25WJkeiZ5SCn0u-43" value="주문 확인" style="whiteSpace=wrap;html=1;" parent="W6jWDk25WJkeiZ5SCn0u-30" vertex="1">
          <mxGeometry x="10" y="96" width="180" height="24" as="geometry" />
        </mxCell>
        <mxCell id="W6jWDk25WJkeiZ5SCn0u-44" value="주문 취소" style="whiteSpace=wrap;html=1;" parent="W6jWDk25WJkeiZ5SCn0u-30" vertex="1">
          <mxGeometry x="10" y="128" width="180" height="24" as="geometry" />
        </mxCell>
        <mxCell id="W6jWDk25WJkeiZ5SCn0u-35" value="배송 시스템" style="swimlane;whiteSpace=wrap;html=1;fillColor=#dae8fc;strokeColor=#6c8ebf;" parent="1" vertex="1">
          <mxGeometry x="60" y="530" width="200" height="130" as="geometry" />
        </mxCell>
        <mxCell id="W6jWDk25WJkeiZ5SCn0u-36" value="배송정보 조회" style="whiteSpace=wrap;html=1;" parent="W6jWDk25WJkeiZ5SCn0u-35" vertex="1">
          <mxGeometry x="10" y="65" width="180" height="24" as="geometry" />
        </mxCell>
        <mxCell id="W6jWDk25WJkeiZ5SCn0u-37" value="배송 정보 입력" style="whiteSpace=wrap;html=1;" parent="W6jWDk25WJkeiZ5SCn0u-35" vertex="1">
          <mxGeometry x="10" y="30" width="180" height="24" as="geometry" />
        </mxCell>
        <mxCell id="W6jWDk25WJkeiZ5SCn0u-38" value="배송정보 업데이트" style="whiteSpace=wrap;html=1;" parent="W6jWDk25WJkeiZ5SCn0u-35" vertex="1">
          <mxGeometry x="10" y="100" width="180" height="24" as="geometry" />
        </mxCell>
        <mxCell id="W6jWDk25WJkeiZ5SCn0u-45" value="이니시스 결제 시스템" style="rounded=0;whiteSpace=wrap;html=1;" parent="1" vertex="1">
          <mxGeometry x="361.5" y="380" width="125" height="65" as="geometry" />
        </mxCell>
        <mxCell id="W6jWDk25WJkeiZ5SCn0u-47" value="통신사1" style="rounded=0;whiteSpace=wrap;html=1;" parent="1" vertex="1">
          <mxGeometry x="630" y="210" width="130" height="40" as="geometry" />
        </mxCell>
        <mxCell id="W6jWDk25WJkeiZ5SCn0u-48" value="통신사2" style="rounded=0;whiteSpace=wrap;html=1;" parent="1" vertex="1">
          <mxGeometry x="630" y="250" width="130" height="40" as="geometry" />
        </mxCell>
        <mxCell id="W6jWDk25WJkeiZ5SCn0u-49" value="통신사3" style="rounded=0;whiteSpace=wrap;html=1;" parent="1" vertex="1">
          <mxGeometry x="630" y="290" width="130" height="40" as="geometry" />
        </mxCell>
        <mxCell id="W6jWDk25WJkeiZ5SCn0u-50" value="이메일 서비스 제공업체" style="rounded=0;whiteSpace=wrap;html=1;" parent="1" vertex="1">
          <mxGeometry x="630" y="350" width="130" height="40" as="geometry" />
        </mxCell>
        <mxCell id="W6jWDk25WJkeiZ5SCn0u-51" value="사용자 인증 시스템" style="rounded=0;whiteSpace=wrap;html=1;" parent="1" vertex="1">
          <mxGeometry x="361.5" y="214" width="125" height="65" as="geometry" />
        </mxCell>
        <mxCell id="W6jWDk25WJkeiZ5SCn0u-52" value="택배사" style="rounded=0;whiteSpace=wrap;html=1;" parent="1" vertex="1">
          <mxGeometry x="630" y="610" width="130" height="40" as="geometry" />
        </mxCell>
        <mxCell id="W6jWDk25WJkeiZ5SCn0u-54" value="택배사 시스템" style="rounded=0;whiteSpace=wrap;html=1;" parent="1" vertex="1">
          <mxGeometry x="360" y="576" width="125" height="65" as="geometry" />
        </mxCell>
        <mxCell id="W6jWDk25WJkeiZ5SCn0u-57" value="" style="endArrow=classic;startArrow=classic;html=1;rounded=0;entryX=1;entryY=0.5;entryDx=0;entryDy=0;exitX=0;exitY=0.5;exitDx=0;exitDy=0;" parent="1" source="W6jWDk25WJkeiZ5SCn0u-51" target="W6jWDk25WJkeiZ5SCn0u-26" edge="1">
          <mxGeometry width="50" height="50" relative="1" as="geometry">
            <mxPoint x="340" y="290" as="sourcePoint" />
            <mxPoint x="260" y="307" as="targetPoint" />
          </mxGeometry>
        </mxCell>
        <mxCell id="W6jWDk25WJkeiZ5SCn0u-58" value="" style="endArrow=classic;startArrow=classic;html=1;rounded=0;entryX=1;entryY=0.5;entryDx=0;entryDy=0;exitX=0;exitY=0.25;exitDx=0;exitDy=0;" parent="1" source="W6jWDk25WJkeiZ5SCn0u-51" edge="1">
          <mxGeometry width="50" height="50" relative="1" as="geometry">
            <mxPoint x="363" y="240" as="sourcePoint" />
            <mxPoint x="249.5" y="234" as="targetPoint" />
          </mxGeometry>
        </mxCell>
        <mxCell id="W6jWDk25WJkeiZ5SCn0u-59" value="" style="endArrow=classic;startArrow=classic;html=1;rounded=0;entryX=1;entryY=0.5;entryDx=0;entryDy=0;" parent="1" target="W6jWDk25WJkeiZ5SCn0u-25" edge="1">
          <mxGeometry width="50" height="50" relative="1" as="geometry">
            <mxPoint x="360" y="240" as="sourcePoint" />
            <mxPoint x="259.5" y="244" as="targetPoint" />
          </mxGeometry>
        </mxCell>
        <mxCell id="W6jWDk25WJkeiZ5SCn0u-61" value="" style="endArrow=classic;html=1;rounded=0;exitX=1;exitY=0.5;exitDx=0;exitDy=0;entryX=0;entryY=0.75;entryDx=0;entryDy=0;" parent="1" source="W6jWDk25WJkeiZ5SCn0u-29" target="W6jWDk25WJkeiZ5SCn0u-51" edge="1">
          <mxGeometry width="50" height="50" relative="1" as="geometry">
            <mxPoint x="380" y="420" as="sourcePoint" />
            <mxPoint x="430" y="370" as="targetPoint" />
          </mxGeometry>
        </mxCell>
        <mxCell id="W6jWDk25WJkeiZ5SCn0u-63" value="" style="endArrow=classic;html=1;rounded=0;exitX=1;exitY=0.75;exitDx=0;exitDy=0;entryX=0;entryY=0.25;entryDx=0;entryDy=0;" parent="1" target="W6jWDk25WJkeiZ5SCn0u-9" edge="1">
          <mxGeometry width="50" height="50" relative="1" as="geometry">
            <mxPoint x="486.5" y="279" as="sourcePoint" />
            <mxPoint x="600" y="480" as="targetPoint" />
          </mxGeometry>
        </mxCell>
        <mxCell id="W6jWDk25WJkeiZ5SCn0u-67" value="" style="endArrow=classic;html=1;rounded=0;exitX=1;exitY=1;exitDx=0;exitDy=0;entryX=0;entryY=0;entryDx=0;entryDy=0;" parent="1" source="W6jWDk25WJkeiZ5SCn0u-51" target="W6jWDk25WJkeiZ5SCn0u-12" edge="1">
          <mxGeometry width="50" height="50" relative="1" as="geometry">
            <mxPoint x="530" y="266.38" as="sourcePoint" />
            <mxPoint x="673.5" y="473.63" as="targetPoint" />
          </mxGeometry>
        </mxCell>
        <mxCell id="W6jWDk25WJkeiZ5SCn0u-68" value="" style="endArrow=classic;startArrow=classic;html=1;rounded=0;entryX=1;entryY=0.5;entryDx=0;entryDy=0;exitX=0;exitY=0.5;exitDx=0;exitDy=0;" parent="1" source="W6jWDk25WJkeiZ5SCn0u-47" edge="1">
          <mxGeometry width="50" height="50" relative="1" as="geometry">
            <mxPoint x="597" y="180" as="sourcePoint" />
            <mxPoint x="485" y="230" as="targetPoint" />
          </mxGeometry>
        </mxCell>
        <mxCell id="W6jWDk25WJkeiZ5SCn0u-69" value="" style="endArrow=classic;startArrow=classic;html=1;rounded=0;exitX=0;exitY=0.5;exitDx=0;exitDy=0;exitPerimeter=0;" parent="1" source="W6jWDk25WJkeiZ5SCn0u-48" edge="1">
          <mxGeometry width="50" height="50" relative="1" as="geometry">
            <mxPoint x="630" y="246" as="sourcePoint" />
            <mxPoint x="490" y="230" as="targetPoint" />
          </mxGeometry>
        </mxCell>
        <mxCell id="W6jWDk25WJkeiZ5SCn0u-70" value="" style="endArrow=classic;startArrow=classic;html=1;rounded=0;exitX=0;exitY=0.5;exitDx=0;exitDy=0;" parent="1" source="W6jWDk25WJkeiZ5SCn0u-49" edge="1">
          <mxGeometry width="50" height="50" relative="1" as="geometry">
            <mxPoint x="630" y="290" as="sourcePoint" />
            <mxPoint x="490" y="230" as="targetPoint" />
          </mxGeometry>
        </mxCell>
        <mxCell id="W6jWDk25WJkeiZ5SCn0u-71" value="" style="endArrow=classic;startArrow=classic;html=1;rounded=0;exitX=0;exitY=0.5;exitDx=0;exitDy=0;" parent="1" source="W6jWDk25WJkeiZ5SCn0u-50" edge="1">
          <mxGeometry width="50" height="50" relative="1" as="geometry">
            <mxPoint x="625" y="330" as="sourcePoint" />
            <mxPoint x="485" y="250" as="targetPoint" />
          </mxGeometry>
        </mxCell>
        <mxCell id="W6jWDk25WJkeiZ5SCn0u-72" value="" style="endArrow=classic;html=1;rounded=0;exitX=1;exitY=1;exitDx=0;exitDy=0;entryX=0;entryY=0.25;entryDx=0;entryDy=0;" parent="1" source="W6jWDk25WJkeiZ5SCn0u-51" target="W6jWDk25WJkeiZ5SCn0u-14" edge="1">
          <mxGeometry width="50" height="50" relative="1" as="geometry">
            <mxPoint x="496.5" y="289" as="sourcePoint" />
            <mxPoint x="640" y="473" as="targetPoint" />
          </mxGeometry>
        </mxCell>
        <mxCell id="W6jWDk25WJkeiZ5SCn0u-73" value="" style="endArrow=classic;html=1;rounded=0;entryX=0;entryY=0.25;entryDx=0;entryDy=0;" parent="1" target="W6jWDk25WJkeiZ5SCn0u-11" edge="1">
          <mxGeometry width="50" height="50" relative="1" as="geometry">
            <mxPoint x="487" y="280" as="sourcePoint" />
            <mxPoint x="600" y="535" as="targetPoint" />
          </mxGeometry>
        </mxCell>
        <mxCell id="W6jWDk25WJkeiZ5SCn0u-74" value="&lt;b&gt;&lt;font color=&quot;#d21e1e&quot;&gt;회원 탈퇴 후&amp;nbsp;&lt;/font&gt;&lt;/b&gt;&lt;div&gt;&lt;b&gt;&lt;font color=&quot;#d21e1e&quot;&gt;계좌연동 정보&amp;nbsp;&lt;/font&gt;&lt;/b&gt;&lt;/div&gt;&lt;div&gt;&lt;b&gt;&lt;font color=&quot;#d21e1e&quot;&gt;삭제 요청&lt;/font&gt;&lt;/b&gt;&lt;/div&gt;" style="text;html=1;align=center;verticalAlign=middle;whiteSpace=wrap;rounded=0;" parent="1" vertex="1">
          <mxGeometry x="500" y="350" width="110" height="30" as="geometry" />
        </mxCell>
        <mxCell id="W6jWDk25WJkeiZ5SCn0u-77" value="" style="endArrow=classic;startArrow=classic;html=1;rounded=0;strokeColor=#1825e2;exitX=1;exitY=0.5;exitDx=0;exitDy=0;" parent="1" edge="1">
          <mxGeometry width="50" height="50" relative="1" as="geometry">
            <mxPoint x="249.5" y="437.5" as="sourcePoint" />
            <mxPoint x="360" y="410" as="targetPoint" />
          </mxGeometry>
        </mxCell>
        <mxCell id="W6jWDk25WJkeiZ5SCn0u-80" value="" style="endArrow=classic;startArrow=classic;html=1;rounded=0;strokeColor=#1825e2;exitX=1;exitY=0.5;exitDx=0;exitDy=0;entryX=0;entryY=0.5;entryDx=0;entryDy=0;" parent="1" source="W6jWDk25WJkeiZ5SCn0u-44" target="W6jWDk25WJkeiZ5SCn0u-45" edge="1">
          <mxGeometry width="50" height="50" relative="1" as="geometry">
            <mxPoint x="260" y="478" as="sourcePoint" />
            <mxPoint x="368" y="505" as="targetPoint" />
          </mxGeometry>
        </mxCell>
        <mxCell id="W6jWDk25WJkeiZ5SCn0u-81" value="" style="endArrow=classic;startArrow=classic;html=1;rounded=0;strokeColor=#989a23;exitX=1;exitY=0.5;exitDx=0;exitDy=0;entryX=0;entryY=0.369;entryDx=0;entryDy=0;entryPerimeter=0;" parent="1" target="W6jWDk25WJkeiZ5SCn0u-54" edge="1">
          <mxGeometry width="50" height="50" relative="1" as="geometry">
            <mxPoint x="250" y="571" as="sourcePoint" />
            <mxPoint x="358" y="598" as="targetPoint" />
          </mxGeometry>
        </mxCell>
        <mxCell id="W6jWDk25WJkeiZ5SCn0u-82" value="" style="endArrow=classic;startArrow=classic;html=1;rounded=0;strokeColor=#989a23;exitX=1;exitY=0.5;exitDx=0;exitDy=0;" parent="1" source="W6jWDk25WJkeiZ5SCn0u-36" edge="1">
          <mxGeometry width="50" height="50" relative="1" as="geometry">
            <mxPoint x="260" y="581" as="sourcePoint" />
            <mxPoint x="360" y="610" as="targetPoint" />
          </mxGeometry>
        </mxCell>
        <mxCell id="W6jWDk25WJkeiZ5SCn0u-84" value="" style="endArrow=classic;startArrow=classic;html=1;rounded=0;strokeColor=#1825e2;exitX=1;exitY=0.5;exitDx=0;exitDy=0;entryX=0;entryY=0.5;entryDx=0;entryDy=0;" parent="1" target="W6jWDk25WJkeiZ5SCn0u-12" edge="1" source="W6jWDk25WJkeiZ5SCn0u-45">
          <mxGeometry width="50" height="50" relative="1" as="geometry">
            <mxPoint x="485" y="367.5" as="sourcePoint" />
            <mxPoint x="595.5" y="290" as="targetPoint" />
          </mxGeometry>
        </mxCell>
        <mxCell id="W6jWDk25WJkeiZ5SCn0u-85" value="" style="endArrow=classic;startArrow=classic;html=1;rounded=0;strokeColor=#1825e2;exitX=0.98;exitY=0.615;exitDx=0;exitDy=0;entryX=0;entryY=0.5;entryDx=0;entryDy=0;exitPerimeter=0;" parent="1" source="W6jWDk25WJkeiZ5SCn0u-45" target="W6jWDk25WJkeiZ5SCn0u-14" edge="1">
          <mxGeometry width="50" height="50" relative="1" as="geometry">
            <mxPoint x="495" y="377.5" as="sourcePoint" />
            <mxPoint x="640" y="443" as="targetPoint" />
          </mxGeometry>
        </mxCell>
        <mxCell id="W6jWDk25WJkeiZ5SCn0u-86" value="" style="endArrow=classic;startArrow=classic;html=1;rounded=0;strokeColor=#1825e2;exitX=1;exitY=0.75;exitDx=0;exitDy=0;entryX=0;entryY=0.5;entryDx=0;entryDy=0;" parent="1" source="W6jWDk25WJkeiZ5SCn0u-45" target="W6jWDk25WJkeiZ5SCn0u-9" edge="1">
          <mxGeometry width="50" height="50" relative="1" as="geometry">
            <mxPoint x="493" y="384" as="sourcePoint" />
            <mxPoint x="640" y="483" as="targetPoint" />
          </mxGeometry>
        </mxCell>
        <mxCell id="W6jWDk25WJkeiZ5SCn0u-87" value="" style="endArrow=classic;startArrow=classic;html=1;rounded=0;strokeColor=#1825e2;exitX=1.004;exitY=0.877;exitDx=0;exitDy=0;entryX=0;entryY=0.5;entryDx=0;entryDy=0;exitPerimeter=0;" parent="1" source="W6jWDk25WJkeiZ5SCn0u-45" target="W6jWDk25WJkeiZ5SCn0u-11" edge="1">
          <mxGeometry width="50" height="50" relative="1" as="geometry">
            <mxPoint x="496" y="393" as="sourcePoint" />
            <mxPoint x="640" y="542" as="targetPoint" />
          </mxGeometry>
        </mxCell>
        <mxCell id="W6jWDk25WJkeiZ5SCn0u-88" value="" style="endArrow=classic;startArrow=classic;html=1;rounded=0;strokeColor=#989a23;exitX=1;exitY=0.5;exitDx=0;exitDy=0;entryX=0;entryY=0.5;entryDx=0;entryDy=0;" parent="1" target="W6jWDk25WJkeiZ5SCn0u-52" edge="1">
          <mxGeometry width="50" height="50" relative="1" as="geometry">
            <mxPoint x="485" y="610" as="sourcePoint" />
            <mxPoint x="595" y="639" as="targetPoint" />
          </mxGeometry>
        </mxCell>
        <mxCell id="Kq8SXs1L8KJOyuAG0QyY-2" value="&lt;font color=&quot;#ffffff&quot; style=&quot;font-size: 18px;&quot;&gt;&lt;b&gt;내부 시스템과 대외 기관에 따른 연계 업무 흐름도&lt;/b&gt;&lt;/font&gt;" style="rounded=1;whiteSpace=wrap;html=1;fillColor=#394c5b;strokeColor=#23445d;" parent="1" vertex="1">
          <mxGeometry x="50" y="50" width="720" height="50" as="geometry" />
        </mxCell>
      </root>
    </mxGraphModel>
  </diagram>
</mxfile>
